<?xml version="1.0" encoding="UTF-8" standalone="no"?>
<!-- Created with Inkscape (http://www.inkscape.org/) -->

<svg
   version="1.1"
   id="svg9"
   xml:space="preserve"
   width="98.723656"
   height="113.38582"
   viewBox="0 0 98.723656 113.38582"
   sodipodi:docname="fira_logo_1 (1).svg"
   inkscape:version="1.1.1 (3bf5ae0d25, 2021-09-20)"
   xmlns:inkscape="http://www.inkscape.org/namespaces/inkscape"
   xmlns:sodipodi="http://sodipodi.sourceforge.net/DTD/sodipodi-0.dtd"
   xmlns="http://www.w3.org/2000/svg"
   xmlns:svg="http://www.w3.org/2000/svg"><defs
     id="defs13" /><sodipodi:namedview
     id="namedview11"
     pagecolor="#ffffff"
     bordercolor="#cccccc"
     borderopacity="1"
     inkscape:pageshadow="0"
     inkscape:pageopacity="1"
     inkscape:pagecheckerboard="0"
     showgrid="false"
     inkscape:zoom="6.2706255"
     inkscape:cx="49.357118"
     inkscape:cy="56.692909"
     inkscape:window-width="1280"
     inkscape:window-height="961"
     inkscape:window-x="-8"
     inkscape:window-y="-8"
     inkscape:window-maximized="1"
     inkscape:current-layer="g15" /><g
     id="g15"
     inkscape:groupmode="layer"
     inkscape:label="fira_logo_1 (1)"
     transform="matrix(1.3333333,0,0,-1.3333333,0,113.38582)"><g
       id="g17"><path
         d="M 74.043,46.34 H 0.031 C 0.273,44.266 4.785,7.371 4.785,7.371 L 5.762,6.246 C 6.488,5.985 20.16,0 37.52,0 c 15.191,0 30,5.985 30.753,6.227 l 1.04,1.144 c -0.02,0 4.234,34.934 4.73,38.969 z"
         style="fill:#000000;fill-opacity:1;fill-rule:nonzero;stroke:none"
         id="path19" /><path
         d="M 4.285,50.477 V 68.758 L 0.273,68.7 C 0.09,69.477 0,70.328 0,71.25 c 0,0.93 0.09,1.793 0.273,2.59 l 3.645,-0.058 c -0.164,1.168 -0.242,2.203 -0.242,3.144 0,2.332 0.758,4.27 2.273,5.805 1.516,1.551 3.477,2.308 5.914,2.308 2.422,0 4.809,-0.425 7.137,-1.293 0.035,-0.812 -0.094,-1.699 -0.41,-2.644 -0.313,-0.961 -0.699,-1.66 -1.184,-2.18 -1.457,0.445 -2.636,0.668 -3.578,0.668 -2.094,0 -3.148,-1.074 -3.148,-3.238 0,-0.887 0.074,-1.774 0.203,-2.602 L 17,73.84 c 0.188,-0.797 0.281,-1.66 0.281,-2.59 0,-0.922 -0.093,-1.773 -0.281,-2.55 l -5.617,0.093 V 50.477 C 10.328,50.293 9.164,50.2 7.895,50.2 c -1.282,0 -2.481,0.093 -3.61,0.277 z"
         style="fill:#000000;fill-opacity:1;fill-rule:nonzero;stroke:none"
         id="path21" /><path
         d="M 30.535,68.426 V 50.477 C 30.012,50.383 29.441,50.309 28.813,50.274 28.188,50.219 27.559,50.2 26.891,50.2 c -0.645,0 -1.293,0.019 -1.942,0.074 -0.629,0.035 -1.219,0.109 -1.734,0.203 v 15.469 c 0,1.793 -0.738,2.718 -2.199,2.718 h -0.703 c -0.184,0.571 -0.278,1.403 -0.278,2.457 0,1.039 0.094,1.903 0.278,2.629 0.808,0.051 1.554,0.11 2.234,0.164 0.687,0.039 1.316,0.051 1.867,0.051 h 1.039 c 1.586,0 2.824,-0.476 3.735,-1.492 0.902,-0.981 1.347,-2.348 1.347,-4.047 z m -8.172,14.75 c 0.907,0.496 2.071,0.758 3.512,0.758 1.461,0 2.605,-0.262 3.402,-0.758 0.368,-0.832 0.551,-1.738 0.551,-2.703 0,-0.961 -0.183,-1.863 -0.551,-2.715 -0.906,-0.461 -2.089,-0.683 -3.55,-0.683 -1.457,0 -2.59,0.222 -3.364,0.683 -0.371,0.852 -0.554,1.754 -0.554,2.715 0,0.965 0.183,1.871 0.554,2.703 z"
         style="fill:#000000;fill-opacity:1;fill-rule:nonzero;stroke:none"
         id="path23" /><path
         d="m 33.656,70.418 c 0.168,0.629 0.446,1.336 0.887,2.09 0.445,0.758 0.871,1.313 1.312,1.664 2.864,-0.219 4.864,-1.644 5.969,-4.25 1.184,2.809 3.149,4.195 5.864,4.195 0.792,0 1.824,-0.113 3.066,-0.367 0,-0.965 -0.168,-2.109 -0.481,-3.422 C 49.938,69 49.5,67.867 48.941,66.926 c -0.535,0.184 -1.332,0.352 -2.398,0.465 -1.559,0 -2.832,-0.797 -3.828,-2.387 V 50.477 C 41.695,50.293 40.477,50.2 39.09,50.2 c -1.387,0 -2.602,0.093 -3.66,0.277 v 15.101 c 0,2.329 -0.59,3.954 -1.774,4.84 z"
         style="fill:#000000;fill-opacity:1;fill-rule:nonzero;stroke:none"
         id="path25" /><path
         d="m 72.953,53.844 c -0.168,-0.648 -0.461,-1.355 -0.887,-2.113 -0.445,-0.739 -0.886,-1.27 -1.351,-1.621 -2.18,0.07 -3.86,0.882 -5.043,2.472 -2.035,-1.867 -4.234,-2.808 -6.602,-2.808 -1.199,0 -2.269,0.203 -3.16,0.59 -0.902,0.39 -1.664,0.91 -2.289,1.554 -0.629,0.664 -1.094,1.422 -1.406,2.274 -0.317,0.867 -0.465,1.758 -0.465,2.699 0,1.328 0.242,2.492 0.719,3.512 0.484,1.015 1.152,1.867 1.98,2.531 0.852,0.664 1.832,1.168 2.942,1.516 1.129,0.351 2.328,0.519 3.601,0.519 0.707,0 1.348,-0.019 1.887,-0.019 0.555,-0.02 1.019,-0.055 1.422,-0.09 v 0.902 c 0,1.977 -0.996,2.977 -3.028,2.977 -1.312,0 -3.605,-0.516 -6.859,-1.536 -0.945,1.09 -1.535,2.793 -1.793,5.082 0.758,0.282 1.59,0.555 2.512,0.797 0.906,0.262 1.851,0.485 2.812,0.668 0.981,0.184 1.922,0.332 2.864,0.438 0.925,0.113 1.773,0.172 2.511,0.172 1.094,0 2.149,-0.172 3.16,-0.485 1.02,-0.308 1.907,-0.773 2.665,-1.422 0.757,-0.628 1.367,-1.457 1.812,-2.457 0.461,-1.015 0.684,-2.238 0.684,-3.625 v -9.48 c 0,-1.445 0.441,-2.457 1.312,-3.047 z m -14.121,3.508 c 0,-1.481 0.852,-2.199 2.531,-2.199 0.867,0 1.848,0.445 2.938,1.347 v 3.735 c -0.606,0.039 -1.145,0.058 -1.571,0.078 -0.402,0.015 -0.738,0.015 -0.941,0.015 -1.98,0 -2.957,-0.976 -2.957,-2.976 z"
         style="fill:#000000;fill-opacity:1;fill-rule:nonzero;stroke:none"
         id="path27" /><path
         d="m 16.875,18.539 c -0.98,0 -1.961,0.293 -2.977,0.868 v -4.512 c 0,-0.61 -0.089,-1.055 -0.312,-1.309 -0.223,-0.281 -0.594,-0.41 -1.145,-0.41 h -1.039 l -0.144,0.149 v 18.277 l 0.144,0.152 h 0.836 c 0.864,0 1.399,-0.445 1.59,-1.332 1.012,1.035 2.211,1.57 3.617,1.57 0.707,0 1.313,-0.167 1.891,-0.48 0.531,-0.316 1.012,-0.754 1.383,-1.348 0.371,-0.589 0.664,-1.297 0.867,-2.129 0.184,-0.828 0.297,-1.753 0.297,-2.785 0,-1.058 -0.133,-1.98 -0.387,-2.832 -0.277,-0.832 -0.629,-1.531 -1.094,-2.105 -0.461,-0.571 -0.996,-1.016 -1.609,-1.317 -0.59,-0.312 -1.254,-0.457 -1.918,-0.457 z m -0.109,11.18 c -1.133,0 -2.094,-0.57 -2.868,-1.699 v -6.395 c 0.446,-0.3 0.887,-0.535 1.309,-0.703 0.426,-0.168 0.832,-0.238 1.223,-0.238 0.812,0 1.461,0.387 1.957,1.199 0.504,0.797 0.761,1.942 0.761,3.418 0,1.52 -0.242,2.625 -0.683,3.344 -0.465,0.726 -1.02,1.074 -1.699,1.074 z"
         style="fill:#ffffff;fill-opacity:1;fill-rule:nonzero;stroke:none"
         id="path29" /><path
         d="m 24.32,30.403 c 0.184,0.629 0.504,1.109 1,1.422 1.184,-0.254 1.977,-1.036 2.368,-2.309 0.703,1.535 1.828,2.309 3.417,2.309 0.407,0 0.868,-0.051 1.368,-0.145 0,-1.02 -0.203,-1.871 -0.649,-2.551 -0.144,0.039 -0.515,0.09 -1.066,0.11 -1.164,0 -2.113,-0.645 -2.793,-1.981 v -8.484 c -0.317,-0.071 -0.777,-0.106 -1.328,-0.106 -0.578,0 -1.02,0.035 -1.356,0.106 v 8.929 c 0,1.184 -0.312,2.094 -0.961,2.7 z"
         style="fill:#ffffff;fill-opacity:1;fill-rule:nonzero;stroke:none"
         id="path31" /><path
         d="M 39.129,29.407 V 18.774 c -0.332,-0.071 -0.777,-0.106 -1.352,-0.106 -0.55,0 -1.015,0.035 -1.328,0.106 v 9.543 c 0,0.48 -0.094,0.832 -0.261,1.035 -0.165,0.223 -0.477,0.312 -0.883,0.312 h -0.301 c -0.074,0.387 -0.125,0.703 -0.125,0.961 0,0.258 0.051,0.59 0.125,0.996 0.574,0.079 1.129,0.114 1.648,0.114 h 0.368 c 0.664,0 1.183,-0.223 1.554,-0.629 0.367,-0.426 0.555,-0.981 0.555,-1.699 z m -3.254,4.656 c -0.164,0.312 -0.238,0.703 -0.238,1.144 0,0.723 0.125,1.149 0.386,1.282 0.262,0.125 0.7,0.203 1.309,0.214 0.688,-0.011 1.133,-0.109 1.316,-0.253 0.204,-0.168 0.293,-0.575 0.313,-1.223 -0.02,-0.629 -0.109,-1.035 -0.313,-1.199 -0.183,-0.188 -0.628,-0.282 -1.316,-0.293 -0.68,0 -1.164,0.105 -1.457,0.328 z"
         style="fill:#ffffff;fill-opacity:1;fill-rule:nonzero;stroke:none"
         id="path33" /><path
         d="m 52.418,27.614 v -6.086 c 0,-1.012 0.148,-1.805 0.445,-2.364 -0.465,-0.39 -1,-0.574 -1.59,-0.574 -0.589,0 -1,0.152 -1.222,0.426 -0.219,0.301 -0.317,0.726 -0.317,1.297 v 6.617 c 0,0.902 -0.125,1.551 -0.367,1.937 -0.222,0.372 -0.629,0.575 -1.203,0.575 C 47.594,29.442 47,29.293 46.41,29 45.797,28.723 45.281,28.317 44.82,27.817 v -9.043 c -0.293,-0.071 -0.718,-0.106 -1.332,-0.106 -0.277,0 -0.515,0.016 -0.738,0.035 -0.238,0.02 -0.426,0.039 -0.609,0.071 v 12.828 l 0.168,0.152 h 1.015 c 0.942,0 1.442,-0.539 1.477,-1.609 1.277,1.164 2.664,1.738 4.16,1.738 1.144,0 2.016,-0.387 2.586,-1.164 0.574,-0.777 0.871,-1.812 0.871,-3.105 z"
         style="fill:#ffffff;fill-opacity:1;fill-rule:nonzero;stroke:none"
         id="path35" /><path
         d="m 62.715,31.68 c 0.07,-0.301 0.129,-0.648 0.129,-1.035 0,-0.371 -0.059,-0.703 -0.129,-0.981 l -3.219,0.055 v -7.781 c 0,-0.758 0.371,-1.129 1.07,-1.129 h 1.793 c 0.153,-0.406 0.223,-0.774 0.223,-1.18 0,-0.39 -0.019,-0.668 -0.055,-0.777 -1.015,-0.129 -1.976,-0.184 -2.922,-0.184 -1.824,0 -2.734,0.883 -2.734,2.676 v 8.34 l -1.922,-0.02 c -0.074,0.297 -0.113,0.61 -0.113,0.981 0,0.347 0.039,0.683 0.113,1.015 l 1.922,-0.058 v 2.297 c 0,0.629 0.094,1.07 0.317,1.328 0.203,0.262 0.574,0.406 1.109,0.406 h 1.016 l 0.183,-0.183 v -3.864 z"
         style="fill:#ffffff;fill-opacity:1;fill-rule:nonzero;stroke:none"
         id="path37" /></g></g></svg>
